<?xml version="1.0" encoding="UTF-8"?>
<svg width="500px" height="80px" viewBox="0 0 500 80" version="1.1" xmlns="http://www.w3.org/2000/svg" xmlns:xlink="http://www.w3.org/1999/xlink">
    <title>nacelle-horizontal-dark</title>
    <g id="nacelle-horizontal-dark" stroke="none" stroke-width="1" fill="none" fill-rule="evenodd">
        <g id="Group-2" transform="translate(5.000000, 1.379000)">
            <g id="Group">
                <path d="M74.1300629,35.1021607 L84.3796737,29.3556564 L92.4473973,32.9737243 C95.4868199,34.33679 97.4411945,37.3590023 97.4373292,40.6900717 L97.399092,73.64156 L97.399092,73.64156 L74.1300629,35.1021607 Z" id="Path-13-Copy-3" fill="#DD0F17" transform="translate(85.786873, 51.498608) scale(-1, -1) translate(-85.786873, -51.498608) "></path>
                <polygon id="Fill-16-Copy" fill="#DD0F17" transform="translate(86.184008, 49.886914) rotate(-16.000000) translate(-86.184008, -49.886914) " points="80.3158362 26.7642083 80.5845663 73.0096207 92.0521807 70.3055203"></polygon>
                <path d="M74.3165249,70.4602589 L81.0128691,76.0571533 L81.0128691,76.0571533 L80.744139,29.811741 L71.6141755,61.6517076 C70.6930817,64.8639435 71.7524998,68.3172123 74.3165249,70.4602589 Z" id="Fill-19-Copy" fill="#C60E15" transform="translate(75.555999, 52.934447) rotate(-16.000000) translate(-75.555999, -52.934447) "></path>
                <path d="M1.40767187,8.79219078 L11.9167899,3.07676635 L19.749865,6.56191951 C22.7982869,7.91824724 24.7625235,10.9420751 24.7625235,14.2786154 L24.7625235,47.1325679 L24.7625235,47.1325679 L1.40767187,8.79219078 Z" id="Path-13" fill="#DD0F17"></path>
                <polygon id="Fill-16-Copy-6" fill="#C60E15" transform="translate(12.727433, 26.715054) scale(-1, -1) rotate(-16.000000) translate(-12.727433, -26.715054) " points="6.78639084 3.7711594 6.98410417 49.6589486 18.6684749 47.0637649"></polygon>
                <path d="M22.236188,41.0762136 L28.8041563,46.5842678 L28.8041563,46.5842678 L28.6047113,0.703835937 L19.5450035,32.2749993 C18.6244955,35.4827748 19.6791162,38.9317924 22.236188,41.0762136 Z" id="Fill-19-Copy-6" fill="#DD0F17" transform="translate(23.417733, 23.644052) scale(-1, -1) rotate(-16.000000) translate(-23.417733, -23.644052) "></path>
                <path d="M37.2961069,35.1459786 L47.5531926,29.32696 L55.5252747,32.8555243 C58.5816796,34.2083354 60.5527975,37.2362975 60.5528496,40.5787081 L60.5533654,73.7088334 L60.5533654,73.7088334 L37.2961069,35.1459786 Z" id="Path-13-Copy-2" fill="#DD0F17" transform="translate(48.924736, 51.517897) scale(-1, -1) translate(-48.924736, -51.517897) "></path>
                <polygon id="Fill-16-Copy" fill="#DD0F17" transform="translate(49.294442, 49.904273) rotate(-16.000000) translate(-49.294442, -49.904273) " points="43.4262699 26.7815672 43.6949999 73.0269795 55.1626143 70.3228791"></polygon>
                <path d="M37.4269585,70.4776178 L44.1233027,76.0745122 L44.1233027,76.0745122 L43.8545726,29.8290999 L34.7246091,61.6690665 C33.8035153,64.8813024 34.8629334,68.3345712 37.4269585,70.4776178 Z" id="Fill-19-Copy" fill="#C60E15" transform="translate(38.666433, 52.951806) rotate(-16.000000) translate(-38.666433, -52.951806) "></path>
                <path d="M38.0111121,8.79388615 L48.5198608,3.07183616 L56.3589453,6.57171694 C59.4023729,7.9305024 61.3621069,10.9520357 61.3617072,14.2850148 L61.3577677,47.1375011 L61.3577677,47.1375011 L38.0111121,8.79388615 Z" id="Path-13-Copy" fill="#DD0F17"></path>
                <polygon id="Fill-16-Copy-2" fill="#C60E15" transform="translate(49.326902, 26.715054) scale(-1, -1) rotate(-16.000000) translate(-49.326902, -26.715054) " points="43.3858596 3.7711594 43.5835729 49.6589486 55.2679437 47.0637649"></polygon>
                <path d="M58.8413027,41.0851175 L65.4049735,46.5921507 L65.4049735,46.5921507 L65.2072602,0.704361541 L56.1511479,32.2867781 C55.231644,35.4934695 56.2857367,38.9409535 58.8413027,41.0851175 Z" id="Fill-19-Copy-2" fill="#DD0F17" transform="translate(60.022097, 23.648256) scale(-1, -1) rotate(-16.000000) translate(-60.022097, -23.648256) "></path>
            </g>
            <path d="M144.510466,66.6210005 L144.510466,25.9943085 L168.731012,66.6210005 L179.122935,66.6210005 L179.122935,8.81081341 L169.140143,8.81081341 L169.140143,49.23294 L144.837771,8.81081341 L134.527674,8.81081341 L134.527674,66.6210005 L144.510466,66.6210005 Z M198.392997,66.6210005 L203.057089,54.0606838 L225.191067,54.0606838 L229.814245,66.6210005 L241.02443,66.6210005 L217.990364,8.81081341 L210.216878,8.81081341 L187.060073,66.6210005 L198.392997,66.6210005 Z M221.91802,45.1825447 L206.330136,45.1825447 L214.144534,24.0713936 L221.91802,45.1825447 Z M272.854809,67.4392622 C284.351386,67.4392622 293.55683,61.5886912 298.139095,50.7876371 L288.52452,46.8599811 C285.415126,54.633467 280.300991,57.579209 272.854809,57.579209 C260.458145,57.579209 255.180357,48.7828961 255.180357,37.2863196 C255.180357,26.5670917 260.458145,17.7707787 272.691157,17.7707787 C280.219164,17.7707787 286.192475,20.7165207 288.360868,28.3263543 L298.057269,24.4805244 C293.393177,13.6794704 284.228647,7.86981248 272.772983,7.86981248 C253.748399,7.86981248 244.87026,21.8620871 244.87026,37.6954504 C244.87026,53.5697268 253.830226,67.4392622 272.854809,67.4392622 Z M346.007403,66.6210005 L346.007403,56.8018604 L317.941027,56.8018604 L317.941027,42.4822812 L344.084488,42.4822812 L344.084488,32.9495327 L317.941027,32.9495327 L317.941027,18.3435619 L346.007403,18.3435619 L346.007403,8.81081341 L307.549104,8.81081341 L307.549104,66.6210005 L346.007403,66.6210005 Z M393.589319,66.6210005 L393.589319,56.8018604 L368.877817,56.8018604 L368.877817,8.81081341 L358.485893,8.81081341 L358.485893,66.6210005 L393.589319,66.6210005 Z M437.079927,66.6210005 L437.079927,56.8018604 L412.368424,56.8018604 L412.368424,8.81081341 L401.976501,8.81081341 L401.976501,66.6210005 L437.079927,66.6210005 Z M483.925407,66.6210005 L483.925407,56.8018604 L455.859032,56.8018604 L455.859032,42.4822812 L482.002493,42.4822812 L482.002493,32.9495327 L455.859032,32.9495327 L455.859032,18.3435619 L483.925407,18.3435619 L483.925407,8.81081341 L445.467109,8.81081341 L445.467109,66.6210005 L483.925407,66.6210005 Z" id="NACELLE" fill="#010204" fill-rule="nonzero"></path>
        </g>
    </g>
</svg>